{
	"asset":{
		"generator":"Khronos glTF Blender I/O v4.2.60",
		"version":"2.0"
	},
	"scene":0,
	"scenes":[
		{
			"name":"Scene",
			"nodes":[
				0
			]
		}
	],
	"nodes":[
		{
			"mesh":0,
			"name":"FloorBoards",
			"rotation":[
				0,
				-1,
				0,
				1.6292068494294654e-07
			]
		}
	],
	"materials":[
		{
			"doubleSided":true,
			"name":"LightBrown",
			"pbrMetallicRoughness":{
				"baseColorFactor":[
					0.5332735776901245,
					0.17788858711719513,
					0.03688950836658478,
					1
				],
				"metallicFactor":0,
				"roughnessFactor":0.5
			}
		}
	],
	"meshes":[
		{
			"name":"Cube.020",
			"primitives":[
				{
					"attributes":{
						"POSITION":0,
						"NORMAL":1,
						"TEXCOORD_0":2
					},
					"indices":3,
					"material":0
				}
			]
		}
	],
	"accessors":[
		{
			"bufferView":0,
			"componentType":5126,
			"count":211,
			"max":[
				1.000000238418579,
				0.07499997317790985,
				1.0000004768371582
			],
			"min":[
				-1.0000004768371582,
				-0.05000000074505806,
				-1.0000009536743164
			],
			"type":"VEC3"
		},
		{
			"bufferView":1,
			"componentType":5126,
			"count":211,
			"type":"VEC3"
		},
		{
			"bufferView":2,
			"componentType":5126,
			"count":211,
			"type":"VEC2"
		},
		{
			"bufferView":3,
			"componentType":5123,
			"count":567,
			"type":"SCALAR"
		}
	],
	"bufferViews":[
		{
			"buffer":0,
			"byteLength":2532,
			"byteOffset":0,
			"target":34962
		},
		{
			"buffer":0,
			"byteLength":2532,
			"byteOffset":2532,
			"target":34962
		},
		{
			"buffer":0,
			"byteLength":1688,
			"byteOffset":5064,
			"target":34962
		},
		{
			"buffer":0,
			"byteLength":1134,
			"byteOffset":6752,
			"target":34963
		}
	],
	"buffers":[
		{
			"byteLength":7888,
			"uri":"FloorBoards.bin"
		}
	]
}
