{
	"asset":{
		"generator":"Khronos glTF Blender I/O v4.2.60",
		"version":"2.0"
	},
	"scene":0,
	"scenes":[
		{
			"name":"Scene",
			"nodes":[
				0
			]
		}
	],
	"nodes":[
		{
			"mesh":0,
			"name":"Pillar"
		}
	],
	"materials":[
		{
			"doubleSided":true,
			"name":"m_DarkGray",
			"pbrMetallicRoughness":{
				"baseColorFactor":[
					0.12743686139583588,
					0.1274378001689911,
					0.1274377405643463,
					1
				],
				"metallicFactor":0,
				"roughnessFactor":0.5
			}
		},
		{
			"doubleSided":true,
			"name":"m_LightGray",
			"pbrMetallicRoughness":{
				"baseColorFactor":[
					0.22465169429779053,
					0.22465169429779053,
					0.22465169429779053,
					1
				],
				"metallicFactor":0,
				"roughnessFactor":0.5
			}
		}
	],
	"meshes":[
		{
			"name":"Cube",
			"primitives":[
				{
					"attributes":{
						"POSITION":0,
						"NORMAL":1,
						"TEXCOORD_0":2
					},
					"indices":3,
					"material":0
				},
				{
					"attributes":{
						"POSITION":4,
						"NORMAL":5,
						"TEXCOORD_0":6
					},
					"indices":7,
					"material":1
				}
			]
		}
	],
	"accessors":[
		{
			"bufferView":0,
			"componentType":5126,
			"count":208,
			"max":[
				0.45000016689300537,
				3,
				0.45000001788139343
			],
			"min":[
				-0.4499998688697815,
				0,
				-0.45000001788139343
			],
			"type":"VEC3"
		},
		{
			"bufferView":1,
			"componentType":5126,
			"count":208,
			"type":"VEC3"
		},
		{
			"bufferView":2,
			"componentType":5126,
			"count":208,
			"type":"VEC2"
		},
		{
			"bufferView":3,
			"componentType":5123,
			"count":372,
			"type":"SCALAR"
		},
		{
			"bufferView":4,
			"componentType":5126,
			"count":16,
			"max":[
				0.25,
				3,
				0.25
			],
			"min":[
				-0.25,
				0.75,
				-0.25
			],
			"type":"VEC3"
		},
		{
			"bufferView":5,
			"componentType":5126,
			"count":16,
			"type":"VEC3"
		},
		{
			"bufferView":6,
			"componentType":5126,
			"count":16,
			"type":"VEC2"
		},
		{
			"bufferView":7,
			"componentType":5123,
			"count":24,
			"type":"SCALAR"
		}
	],
	"bufferViews":[
		{
			"buffer":0,
			"byteLength":2496,
			"byteOffset":0,
			"target":34962
		},
		{
			"buffer":0,
			"byteLength":2496,
			"byteOffset":2496,
			"target":34962
		},
		{
			"buffer":0,
			"byteLength":1664,
			"byteOffset":4992,
			"target":34962
		},
		{
			"buffer":0,
			"byteLength":744,
			"byteOffset":6656,
			"target":34963
		},
		{
			"buffer":0,
			"byteLength":192,
			"byteOffset":7400,
			"target":34962
		},
		{
			"buffer":0,
			"byteLength":192,
			"byteOffset":7592,
			"target":34962
		},
		{
			"buffer":0,
			"byteLength":128,
			"byteOffset":7784,
			"target":34962
		},
		{
			"buffer":0,
			"byteLength":48,
			"byteOffset":7912,
			"target":34963
		}
	],
	"buffers":[
		{
			"byteLength":7960,
			"uri":"Pillar.bin"
		}
	]
}
