{
	"asset":{
		"generator":"Khronos glTF Blender I/O v4.2.60",
		"version":"2.0"
	},
	"scene":0,
	"scenes":[
		{
			"name":"Scene",
			"nodes":[
				0
			]
		}
	],
	"nodes":[
		{
			"mesh":0,
			"name":"StoneWall",
			"scale":[
				0.5,
				0.949999988079071,
				0.949999988079071
			],
			"translation":[
				0,
				0,
				10
			]
		}
	],
	"materials":[
		{
			"doubleSided":true,
			"name":"Silver",
			"pbrMetallicRoughness":{
				"baseColorFactor":[
					0.5271117687225342,
					0.5028868913650513,
					0.46207714080810547,
					1
				],
				"metallicFactor":0,
				"roughnessFactor":0.5
			}
		}
	],
	"meshes":[
		{
			"name":"Cube.049",
			"primitives":[
				{
					"attributes":{
						"POSITION":0,
						"NORMAL":1,
						"TEXCOORD_0":2
					},
					"indices":3,
					"material":0
				}
			]
		}
	],
	"accessors":[
		{
			"bufferView":0,
			"componentType":5126,
			"count":600,
			"max":[
				0.5,
				3.1578948497772217,
				1.0526317358016968
			],
			"min":[
				-0.5,
				0,
				-1.0526314973831177
			],
			"type":"VEC3"
		},
		{
			"bufferView":1,
			"componentType":5126,
			"count":600,
			"type":"VEC3"
		},
		{
			"bufferView":2,
			"componentType":5126,
			"count":600,
			"type":"VEC2"
		},
		{
			"bufferView":3,
			"componentType":5123,
			"count":828,
			"type":"SCALAR"
		}
	],
	"bufferViews":[
		{
			"buffer":0,
			"byteLength":7200,
			"byteOffset":0,
			"target":34962
		},
		{
			"buffer":0,
			"byteLength":7200,
			"byteOffset":7200,
			"target":34962
		},
		{
			"buffer":0,
			"byteLength":4800,
			"byteOffset":14400,
			"target":34962
		},
		{
			"buffer":0,
			"byteLength":1656,
			"byteOffset":19200,
			"target":34963
		}
	],
	"buffers":[
		{
			"byteLength":20856,
			"uri":"StoneWall.bin"
		}
	]
}
