{
	"asset":{
		"generator":"Khronos glTF Blender I/O v4.2.60",
		"version":"2.0"
	},
	"scene":0,
	"scenes":[
		{
			"name":"Scene",
			"nodes":[
				0
			]
		}
	],
	"nodes":[
		{
			"mesh":0,
			"name":"TileFloorLarge"
		}
	],
	"materials":[
		{
			"doubleSided":true,
			"name":"Silver",
			"pbrMetallicRoughness":{
				"baseColorFactor":[
					0.5271117687225342,
					0.5028868913650513,
					0.46207714080810547,
					1
				],
				"metallicFactor":0,
				"roughnessFactor":0.5
			}
		}
	],
	"meshes":[
		{
			"name":"Plane.003",
			"primitives":[
				{
					"attributes":{
						"POSITION":0,
						"NORMAL":1,
						"TEXCOORD_0":2
					},
					"indices":3,
					"material":0
				}
			]
		}
	],
	"accessors":[
		{
			"bufferView":0,
			"componentType":5126,
			"count":2164,
			"max":[
				1.0000009536743164,
				0,
				1.0000019073486328
			],
			"min":[
				-1,
				-0.25,
				-1
			],
			"type":"VEC3"
		},
		{
			"bufferView":1,
			"componentType":5126,
			"count":2164,
			"type":"VEC3"
		},
		{
			"bufferView":2,
			"componentType":5126,
			"count":2164,
			"type":"VEC2"
		},
		{
			"bufferView":3,
			"componentType":5123,
			"count":3348,
			"type":"SCALAR"
		}
	],
	"bufferViews":[
		{
			"buffer":0,
			"byteLength":25968,
			"byteOffset":0,
			"target":34962
		},
		{
			"buffer":0,
			"byteLength":25968,
			"byteOffset":25968,
			"target":34962
		},
		{
			"buffer":0,
			"byteLength":17312,
			"byteOffset":51936,
			"target":34962
		},
		{
			"buffer":0,
			"byteLength":6696,
			"byteOffset":69248,
			"target":34963
		}
	],
	"buffers":[
		{
			"byteLength":75944,
			"uri":"TileFloorLarge.bin"
		}
	]
}
