{
	"asset":{
		"generator":"Khronos glTF Blender I/O v4.2.60",
		"version":"2.0"
	},
	"scene":0,
	"scenes":[
		{
			"name":"Scene",
			"nodes":[
				0
			]
		}
	],
	"nodes":[
		{
			"mesh":0,
			"name":"WaterGun"
		}
	],
	"materials":[
		{
			"doubleSided":true,
			"name":"Battleship Gray",
			"pbrMetallicRoughness":{
				"baseColorFactor":[
					0.23454894125461578,
					0.29613855481147766,
					0.2874409556388855,
					1
				],
				"metallicFactor":0,
				"roughnessFactor":0.5
			}
		}
	],
	"meshes":[
		{
			"name":"Cylinder.007",
			"primitives":[
				{
					"attributes":{
						"POSITION":0,
						"NORMAL":1,
						"TEXCOORD_0":2
					},
					"indices":3,
					"material":0
				}
			]
		}
	],
	"accessors":[
		{
			"bufferView":0,
			"componentType":5126,
			"count":3982,
			"max":[
				0.08898817002773285,
				0.09748125076293945,
				1.8617637157440186
			],
			"min":[
				-0.09101308882236481,
				-0.3124234676361084,
				-0.5532365441322327
			],
			"type":"VEC3"
		},
		{
			"bufferView":1,
			"componentType":5126,
			"count":3982,
			"type":"VEC3"
		},
		{
			"bufferView":2,
			"componentType":5126,
			"count":3982,
			"type":"VEC2"
		},
		{
			"bufferView":3,
			"componentType":5123,
			"count":6540,
			"type":"SCALAR"
		}
	],
	"bufferViews":[
		{
			"buffer":0,
			"byteLength":47784,
			"byteOffset":0,
			"target":34962
		},
		{
			"buffer":0,
			"byteLength":47784,
			"byteOffset":47784,
			"target":34962
		},
		{
			"buffer":0,
			"byteLength":31856,
			"byteOffset":95568,
			"target":34962
		},
		{
			"buffer":0,
			"byteLength":13080,
			"byteOffset":127424,
			"target":34963
		}
	],
	"buffers":[
		{
			"byteLength":140504,
			"uri":"WaterGun.bin"
		}
	]
}
