{
	"asset":{
		"generator":"Khronos glTF Blender I/O v4.2.60",
		"version":"2.0"
	},
	"scene":0,
	"scenes":[
		{
			"name":"Scene",
			"nodes":[
				0
			]
		}
	],
	"nodes":[
		{
			"mesh":0,
			"name":"WaterGun",
			"rotation":[
				0.7071068286895752,
				0,
				0,
				0.7071068286895752
			],
			"scale":[
				0.30000001192092896,
				0.006750002037733793,
				0.30000001192092896
			],
			"translation":[
				-5.000593185424805,
				1.9860570430755615,
				0.10440194606781006
			]
		}
	],
	"materials":[
		{
			"doubleSided":true,
			"name":"Battleship Gray",
			"pbrMetallicRoughness":{
				"baseColorFactor":[
					0.23454894125461578,
					0.29613855481147766,
					0.2874409556388855,
					1
				],
				"metallicFactor":0,
				"roughnessFactor":0.5
			}
		}
	],
	"meshes":[
		{
			"name":"Cylinder.007",
			"primitives":[
				{
					"attributes":{
						"POSITION":0,
						"NORMAL":1,
						"TEXCOORD_0":2
					},
					"indices":3,
					"material":0
				}
			]
		}
	],
	"accessors":[
		{
			"bufferView":0,
			"componentType":5126,
			"count":3986,
			"max":[
				0.20197610557079315,
				171.19969177246094,
				0.6644219160079956
			],
			"min":[
				-0.1980258971452713,
				-67.31878662109375,
				-0.24647778272628784
			],
			"type":"VEC3"
		},
		{
			"bufferView":1,
			"componentType":5126,
			"count":3986,
			"type":"VEC3"
		},
		{
			"bufferView":2,
			"componentType":5126,
			"count":3986,
			"type":"VEC2"
		},
		{
			"bufferView":3,
			"componentType":5123,
			"count":6540,
			"type":"SCALAR"
		}
	],
	"bufferViews":[
		{
			"buffer":0,
			"byteLength":47832,
			"byteOffset":0,
			"target":34962
		},
		{
			"buffer":0,
			"byteLength":47832,
			"byteOffset":47832,
			"target":34962
		},
		{
			"buffer":0,
			"byteLength":31888,
			"byteOffset":95664,
			"target":34962
		},
		{
			"buffer":0,
			"byteLength":13080,
			"byteOffset":127552,
			"target":34963
		}
	],
	"buffers":[
		{
			"byteLength":140632,
			"uri":"WaterGun.bin"
		}
	]
}
